<svg width="135" height="114" viewBox="0 0 135 114" fill="none" xmlns="http://www.w3.org/2000/svg">
<g clip-path="url(#clip0_1_3)">
<path d="M133.323 50.5643C132.202 48.1187 130.671 45.9812 128.72 44.1441C126.772 42.3108 124.499 40.8704 121.898 39.8306C119.301 38.7868 116.557 38.2669 113.67 38.2669H109.847C110.068 37.3464 110.188 36.3952 110.188 35.4015V12.8518C110.188 11.0648 109.832 9.39333 109.117 7.83353C108.402 6.27759 107.428 4.91036 106.184 3.7434C104.943 2.57644 103.494 1.65982 101.836 0.993533C100.181 0.3311 98.4306 -0.00396729 96.5909 -0.00396729H37.7559C35.8699 -0.00396729 34.1114 0.327249 32.4804 0.993533C30.8456 1.65982 29.4117 2.57644 28.1672 3.7434C26.9266 4.91036 25.9488 6.27759 25.2338 7.83353C24.5188 9.39333 24.1632 11.0648 24.1632 12.8518V35.4015C24.1632 36.3913 24.283 37.3464 24.5033 38.2669H21.3264C18.3659 38.2669 15.6064 38.7907 13.0439 39.8306C10.4815 40.8743 8.22445 42.3108 6.27655 44.1441C4.32866 45.9773 2.7943 48.1187 1.67735 50.5643C0.556542 53.0099 0 55.6365 0 58.4403V93.8265C0 96.6303 0.556542 99.2569 1.67735 101.703C2.7943 104.148 4.32866 106.286 6.27655 108.123C8.22445 109.956 10.4815 111.396 13.0439 112.436C15.6064 113.48 18.3659 114 21.3264 114H113.674C116.561 114 119.305 113.48 121.902 112.436C124.499 111.396 126.776 109.956 128.723 108.123C130.671 106.289 132.206 104.148 133.327 101.703C134.443 99.2569 135.004 96.6303 135.004 93.8265V58.4403C135.004 55.6365 134.443 53.0099 133.327 50.5643H133.323ZM31.8929 12.7286C31.8929 12.0392 32.0398 11.3729 32.3413 10.7297C32.6389 10.0866 33.0524 9.52428 33.5819 9.04286C34.1114 8.56144 34.722 8.18401 35.41 7.90671C36.0979 7.63326 36.8593 7.49461 37.6864 7.49461H96.5329C97.36 7.49461 98.1214 7.63326 98.8093 7.90671C99.4973 8.18401 100.108 8.56144 100.637 9.04286C101.167 9.52428 101.58 10.0866 101.878 10.7297C102.176 11.3729 102.326 12.0392 102.326 12.7286V35.3245C102.326 36.0139 102.176 36.6802 101.878 37.3233C101.72 37.6623 101.526 37.9742 101.306 38.2669H32.9133C32.693 37.9742 32.4997 37.6584 32.3413 37.3233C32.0398 36.6802 31.8929 36.0139 31.8929 35.3245V12.7286ZM122.659 93.6994C122.659 94.7816 122.424 95.8253 121.956 96.8344C121.485 97.8435 120.835 98.7254 120.008 99.4841C119.177 100.243 118.223 100.851 117.14 101.321C116.058 101.791 114.868 102.026 113.569 102.026H21.2182C19.9196 102.026 18.7292 101.791 17.647 101.321C16.5648 100.851 15.6064 100.239 14.7793 99.4841C13.9483 98.7254 13.299 97.8435 12.8314 96.8344C12.3599 95.8253 12.128 94.7816 12.128 93.6994V58.24C12.128 57.1578 12.3599 56.1141 12.8314 55.105C13.299 54.096 13.9483 53.214 14.7793 52.4553C15.6064 51.7004 16.5648 51.1035 17.647 50.6721C18.7292 50.2408 19.9196 50.0251 21.2182 50.0251H113.565C114.864 50.0251 116.054 50.2446 117.137 50.6721C118.219 51.1035 119.173 51.7004 120.004 52.4553C120.831 53.214 121.485 54.096 121.952 55.105C122.42 56.1141 122.656 57.1616 122.656 58.24V93.6994H122.659Z" fill="#243E8F"/>
<path d="M66.3483 76.8113C63.0283 76.8113 60.3345 79.4957 60.3345 82.804C60.3345 86.1124 63.0283 88.7967 66.3483 88.7967C69.6682 88.7967 72.362 86.1124 72.362 82.804C72.362 79.4957 69.6682 76.8113 66.3483 76.8113Z" fill="white"/>
<path d="M133.323 50.5643C132.202 48.1187 130.671 45.9812 128.72 44.1441C126.772 42.3108 124.499 40.8704 121.898 39.8306C119.301 38.7868 116.557 38.2669 113.67 38.2669H109.847C110.068 37.3464 110.188 36.3952 110.188 35.4015V12.8518C110.188 11.0648 109.832 9.39333 109.117 7.83353C108.402 6.27759 107.428 4.91036 106.184 3.7434C104.943 2.57644 103.494 1.65982 101.836 0.993533C100.181 0.3311 98.4306 -0.00396729 96.5909 -0.00396729H37.7559C35.8699 -0.00396729 34.1114 0.327249 32.4804 0.993533C30.8456 1.65982 29.4117 2.57644 28.1672 3.7434C26.9266 4.91036 25.9488 6.27759 25.2338 7.83353C24.5188 9.39333 24.1632 11.0648 24.1632 12.8518V35.4015C24.1632 36.3913 24.283 37.3464 24.5033 38.2669H21.3264C18.3659 38.2669 15.6064 38.7907 13.0439 39.8306C10.4815 40.8743 8.22445 42.3108 6.27655 44.1441C4.32866 45.9773 2.7943 48.1187 1.67735 50.5643C0.556542 53.0099 0 55.6365 0 58.4403V93.8265C0 96.6303 0.556542 99.2569 1.67735 101.703C2.7943 104.148 4.32866 106.286 6.27655 108.123C8.22445 109.956 10.4815 111.396 13.0439 112.436C15.6064 113.48 18.3659 114 21.3264 114H113.674C116.561 114 119.305 113.48 121.902 112.436C124.499 111.396 126.776 109.956 128.723 108.123C130.671 106.289 132.206 104.148 133.327 101.703C134.443 99.2569 135.004 96.6303 135.004 93.8265V58.4403C135.004 55.6365 134.443 53.0099 133.327 50.5643H133.323ZM31.8929 12.7286C31.8929 12.0392 32.0398 11.3729 32.3413 10.7297C32.6389 10.0866 33.0524 9.52428 33.5819 9.04286C34.1114 8.56144 34.722 8.18401 35.41 7.90671C36.0979 7.63326 36.8593 7.49461 37.6864 7.49461H96.5329C97.36 7.49461 98.1214 7.63326 98.8093 7.90671C99.4973 8.18401 100.108 8.56144 100.637 9.04286C101.167 9.52428 101.58 10.0866 101.878 10.7297C102.176 11.3729 102.326 12.0392 102.326 12.7286V35.3245C102.326 36.0139 102.176 36.6802 101.878 37.3233C101.72 37.6623 101.526 37.9742 101.306 38.2669H32.9133C32.693 37.9742 32.4997 37.6584 32.3413 37.3233C32.0398 36.6802 31.8929 36.0139 31.8929 35.3245V12.7286ZM122.659 93.6994C122.659 94.7816 122.424 95.8253 121.956 96.8344C121.485 97.8435 120.835 98.7254 120.008 99.4841C119.177 100.243 118.223 100.851 117.14 101.321C116.058 101.791 114.868 102.026 113.569 102.026H21.2182C19.9196 102.026 18.7292 101.791 17.647 101.321C16.5648 100.851 15.6064 100.239 14.7793 99.4841C13.9483 98.7254 13.299 97.8435 12.8314 96.8344C12.3599 95.8253 12.128 94.7816 12.128 93.6994V58.24C12.128 57.1578 12.3599 56.1141 12.8314 55.105C13.299 54.096 13.9483 53.214 14.7793 52.4553C15.6064 51.7004 16.5648 51.1035 17.647 50.6721C18.7292 50.2408 19.9196 50.0251 21.2182 50.0251H113.565C114.864 50.0251 116.054 50.2446 117.137 50.6721C118.219 51.1035 119.173 51.7004 120.004 52.4553C120.831 53.214 121.485 54.096 121.952 55.105C122.42 56.1141 122.656 57.1616 122.656 58.24V93.6994H122.659Z" fill="url(#paint0_linear_1_3)"/>
<path d="M66.3483 76.8113C63.0283 76.8113 60.3345 79.4957 60.3345 82.804C60.3345 86.1124 63.0283 88.7967 66.3483 88.7967C69.6682 88.7967 72.362 86.1124 72.362 82.804C72.362 79.4957 69.6682 76.8113 66.3483 76.8113Z" fill="url(#paint1_linear_1_3)"/>
</g>
<defs>
<linearGradient id="paint0_linear_1_3" x1="19.1002" y1="115.071" x2="135.418" y2="-1.65561" gradientUnits="userSpaceOnUse">
<stop stop-color="#0511F2"/>
<stop offset="0.3" stop-color="#164DE9"/>
<stop offset="0.63" stop-color="#2788E0"/>
<stop offset="0.87" stop-color="#31ADDB"/>
<stop offset="1" stop-color="#36BBD9"/>
</linearGradient>
<linearGradient id="paint1_linear_1_3" x1="19.1002" y1="115.071" x2="135.418" y2="-1.6555" gradientUnits="userSpaceOnUse">
<stop stop-color="#0511F2"/>
<stop offset="0.3" stop-color="#164DE9"/>
<stop offset="0.63" stop-color="#2788E0"/>
<stop offset="0.87" stop-color="#31ADDB"/>
<stop offset="1" stop-color="#36BBD9"/>
</linearGradient>
<clipPath id="clip0_1_3">
<rect width="135" height="114" fill="white"/>
</clipPath>
</defs>
</svg>
