<?xml version="1.0" encoding="UTF-8"?>
<svg xmlns="http://www.w3.org/2000/svg" width="435" height="78" viewBox="0 0 435 78" fill="none">
  <g clip-path="url(#clip0_4245_24963)">
    <path d="M88.85 38.09C88.85 45.64 86.92 53.07 83.25 59.68C79.58 66.28 74.29 71.82 67.86 75.83C67.49 76.04 67.06 76.15 66.62 76.15C66.18 76.15 65.76 76.04 65.38 75.83L44.42 63.66L23.45 75.79C23.08 76 22.65 76.11 22.21 76.11C21.77 76.11 21.35 76 20.97 75.79C14.55 71.78 9.26 66.24 5.6 59.64C1.93 53.03 0 45.59 0 38.05C0 30.51 1.93 23.07 5.6 16.47C9.27 9.87 14.56 4.31 20.97 0.32C21.35 0.11 21.79 0 22.21 0C22.63 0 23.08 0.11 23.45 0.34L44.42 12.45L65.38 0.34C65.76 0.11 66.2 0 66.62 0C67.04 0 67.49 0.11 67.86 0.34V0.37C74.29 4.36 79.58 9.92 83.25 16.52C86.92 23.12 88.85 30.55 88.85 38.1V38.09Z" fill="#F0F0F0"></path>
    <path d="M88.8499 38.09C88.8499 45.64 86.9199 53.07 83.2499 59.68C79.5799 66.28 74.2899 71.82 67.8599 75.83C67.4899 76.04 67.0599 76.15 66.6199 76.15C66.1799 76.15 65.7599 76.04 65.3799 75.83L44.4199 63.66L64.1899 52.22C64.9199 51.8 65.5299 51.2 65.9499 50.47C66.3699 49.75 66.6099 48.93 66.6099 48.09V28.02C66.6099 27.17 66.3799 26.36 65.9599 25.62C65.5399 24.89 64.9199 24.28 64.1799 23.87L44.4099 12.45L65.3699 0.34C65.7499 0.11 66.1899 0 66.6099 0C67.0299 0 67.4799 0.11 67.8499 0.34V0.37C74.2799 4.36 79.5699 9.92 83.2399 16.52C86.9099 23.12 88.8399 30.55 88.8399 38.1L88.8499 38.09Z" fill="url(#paint0_radial_4245_24963)"></path>
    <path d="M24.64 52.28L44.43 63.66L23.46 75.79C23.09 76 22.66 76.11 22.22 76.11C21.78 76.11 21.36 76 20.98 75.79C14.56 71.78 9.27001 66.24 5.61001 59.64C1.94001 53.03 0.0100098 45.59 0.0100098 38.05C0.0100098 30.51 1.94001 23.07 5.61001 16.47C9.28001 9.87 14.57 4.31 20.98 0.32C21.36 0.11 21.8 0 22.22 0C22.64 0 23.09 0.11 23.46 0.34L44.43 12.45L24.64 23.89C23.91 24.3 23.31 24.91 22.89 25.64C22.47 26.36 22.24 27.18 22.23 28.02V48.15C22.24 49 22.47 49.8 22.89 50.53C23.31 51.26 23.92 51.86 24.64 52.28Z" fill="url(#paint1_radial_4245_24963)"></path>
    <path d="M134.65 37.5601L149.51 14.4901C149.75 14.1101 149.77 13.6401 149.56 13.2401C149.35 12.8501 148.93 12.6001 148.49 12.6001H141.87C141.45 12.6001 141.06 12.8101 140.83 13.1701L129.94 30.4401L118.85 13.1701C118.62 12.8201 118.24 12.6101 117.82 12.6101H111.2C110.75 12.6101 110.34 12.8601 110.12 13.2501C109.91 13.6501 109.93 14.1301 110.17 14.5001L125.24 37.4901L109 61.6601C108.75 62.0401 108.72 62.5201 108.93 62.9201C109.14 63.3201 109.56 63.5701 110.01 63.5701H116.7C117.11 63.5701 117.49 63.3601 117.72 63.0201L129.86 44.5801L141.93 63.0201C142.16 63.3701 142.54 63.5701 142.95 63.5701H149.64C150.09 63.5701 150.51 63.3201 150.72 62.9201C150.93 62.5201 150.91 62.0401 150.66 61.6701L134.63 37.5601H134.65Z" fill="#F0F0F0"></path>
    <path d="M201.69 12.6001H199.7C199.31 12.6001 198.94 12.7901 198.72 13.1001L179.34 39.3801L160.1 13.1001C159.87 12.7901 159.5 12.6001 159.11 12.6001H157.05C156.38 12.6001 155.83 13.1501 155.83 13.8201V62.3401C155.83 63.0101 156.38 63.5601 157.05 63.5601H162.79C163.46 63.5601 164.01 63.0101 164.01 62.3401V31.6701L177.39 49.5501C177.62 49.8601 177.99 50.0401 178.37 50.0401H180.43C180.81 50.0401 181.18 49.8601 181.41 49.5501L194.72 31.7501V62.3401C194.72 63.0101 195.27 63.5601 195.94 63.5601H201.68C202.35 63.5601 202.9 63.0101 202.9 62.3401V13.8201C202.9 13.1501 202.35 12.6001 201.68 12.6001H201.69Z" fill="#F0F0F0"></path>
    <path d="M258.69 19.5303C264.98 19.5303 269.82 22.1403 273.49 27.5203C273.68 27.8003 273.98 27.9903 274.32 28.0403C274.66 28.0903 275 28.0003 275.26 27.7903L279.52 24.4103C280.02 24.0203 280.13 23.3203 279.79 22.7903C277.63 19.4403 274.65 16.7403 270.96 14.7703C267.27 12.8003 263.12 11.8003 258.62 11.8003C251.26 11.8003 244.95 14.3603 239.85 19.3903C234.75 24.4303 232.17 30.7203 232.17 38.0903C232.17 45.4603 234.75 51.7403 239.85 56.7903C244.94 61.8303 251.26 64.3903 258.62 64.3903C263.12 64.3903 267.28 63.3903 271 61.4203C274.73 59.4403 277.69 56.7403 279.81 53.3803C280.14 52.8503 280.02 52.1603 279.53 51.7703L275.27 48.3903C275.01 48.1803 274.66 48.0903 274.33 48.1403C273.99 48.1903 273.69 48.3803 273.5 48.6603C269.84 54.0403 265 56.6503 258.7 56.6503C253.58 56.6503 249.23 54.8703 245.79 51.3603C242.34 47.8403 240.59 43.3803 240.59 38.1003C240.59 32.8203 242.34 28.3603 245.79 24.8403C249.23 21.3303 253.58 19.5503 258.7 19.5503V19.5303H258.69Z" fill="#F0F0F0"></path>
    <path d="M345.43 24.5102C342.57 24.5102 339.86 25.0902 337.38 26.2402C335.93 26.9102 334.63 27.7502 333.49 28.7302V7.21023C333.49 6.54023 332.94 5.99023 332.27 5.99023H326.61C325.94 5.99023 325.39 6.54023 325.39 7.21023V62.3402C325.39 63.0102 325.94 63.5602 326.61 63.5602H331.9C332.57 63.5602 333.12 63.0102 333.12 62.3402V59.8902C334.27 60.9302 335.6 61.8202 337.11 62.5302C339.71 63.7502 342.54 64.3702 345.5 64.3702C350.93 64.3702 355.48 62.4302 359.04 58.6102C362.57 54.8102 364.37 50.0602 364.37 44.4702C364.37 38.8802 362.56 34.0502 359 30.2502C355.42 26.4302 350.85 24.5002 345.42 24.5002L345.43 24.5102ZM356.12 44.4102C356.12 47.9902 355.02 50.9702 352.85 53.2702C350.67 55.5802 347.98 56.7102 344.62 56.7102C341.53 56.7102 338.85 55.6702 336.67 53.6202C334.51 51.5902 333.42 48.5202 333.42 44.4802C333.42 40.4402 334.52 37.3502 336.68 35.3002C338.89 33.2002 341.49 32.1802 344.62 32.1802C347.93 32.1802 350.61 33.3102 352.81 35.6202C355 37.9202 356.11 40.8802 356.11 44.4102H356.12Z" fill="#F0F0F0"></path>
    <path d="M388.37 24.5103C382.9 24.5103 378.23 26.4703 374.48 30.3203C370.74 34.1703 368.84 38.9303 368.84 44.4803C368.84 50.0303 370.79 54.8603 374.65 58.6603C378.5 62.4503 383.34 64.3802 389.04 64.3802C394.74 64.3802 400.13 62.1503 404.27 57.7503C404.7 57.2903 404.72 56.5903 404.3 56.1103L400.99 52.2903C400.77 52.0303 400.45 51.8803 400.1 51.8703C399.78 51.8703 399.43 51.9903 399.2 52.2303C396.22 55.2103 392.82 56.7203 389.11 56.7203C385.91 56.7203 383.17 55.7403 380.99 53.7903C379.13 52.1303 377.93 49.9903 377.43 47.4003H404.25C404.82 47.4003 405.32 47.0003 405.44 46.4403C405.75 45.0403 405.91 43.5103 405.91 41.9103C405.91 36.8903 404.22 32.6803 400.87 29.4203C397.54 26.1603 393.33 24.5103 388.36 24.5103H388.37ZM381.22 34.6403C383.19 32.9603 385.54 32.1003 388.22 32.1003C390.9 32.1003 393.12 32.9003 394.94 34.5403C396.46 35.9203 397.33 37.6903 397.58 39.9403H377.79C378.44 37.8003 379.6 36.0203 381.22 34.6303V34.6403Z" fill="#F0F0F0"></path>
    <path d="M433.29 25.34C432.24 25.13 431.27 25.02 430.4 25.02C426.49 25.02 423.18 26.2 420.52 28.54V26.54C420.52 25.87 419.97 25.32 419.3 25.32H414.01C413.34 25.32 412.79 25.87 412.79 26.54V62.34C412.79 63.01 413.34 63.56 414.01 63.56H419.67C420.35 63.56 420.89 63.01 420.89 62.34V42.05C420.89 39.12 421.83 36.9 423.76 35.27C425.73 33.61 428.13 32.77 430.91 32.77H433.04C433.71 32.77 434.26 32.22 434.26 31.55V26.55C434.26 25.97 433.85 25.46 433.28 25.35H433.29V25.34Z" fill="#F0F0F0"></path>
    <path d="M318.99 25.1902H313.55C313 25.1902 312.51 25.5202 312.3 26.0202L301.14 52.8302L290.56 26.0402C290.36 25.5202 289.86 25.1802 289.3 25.1802H283.94C283.49 25.1802 283.07 25.4002 282.82 25.7702C282.57 26.1402 282.52 26.6102 282.68 27.0302L296.85 62.7702L291.27 75.8502C291.09 76.2702 291.14 76.7402 291.39 77.1202C291.64 77.5002 292.06 77.7302 292.52 77.7302H297.81C298.35 77.7302 298.84 77.4102 299.05 76.9102L320.22 27.0702C320.4 26.6502 320.35 26.1802 320.1 25.8002C319.85 25.4202 319.43 25.1902 318.97 25.1902H318.99Z" fill="#F0F0F0"></path>
  </g>
  <defs>
    <radialGradient id="paint0_radial_4245_24963" cx="0" cy="0" r="1" gradientUnits="userSpaceOnUse" gradientTransform="translate(48.4499 37.97) scale(40.6 40.6)">
      <stop stop-color="white"></stop>
      <stop offset="0.96" stop-color="#23D0FF"></stop>
    </radialGradient>
    <radialGradient id="paint1_radial_4245_24963" cx="0" cy="0" r="1" gradientUnits="userSpaceOnUse" gradientTransform="translate(40.72 37.86) scale(40.58 40.58)">
      <stop stop-color="white"></stop>
      <stop offset="1" stop-color="#00FF91"></stop>
    </radialGradient>
    <clipPath id="clip0_4245_24963">
      <rect width="434.26" height="77.73" fill="white"></rect>
    </clipPath>
  </defs>
</svg>
